<svg version="1.2" xmlns="http://www.w3.org/2000/svg" viewBox="0 0 159 40" width="159" height="40">
	<title>New Project</title>
	<style>
		.s0 { fill: #000000;stroke: #000000;stroke-miterlimit:100;stroke-width: 0 } 
		.s1 { fill: #feefdf;stroke: #000000;stroke-miterlimit:100;stroke-width: 0 } 
		.s2 { fill: #ffcfc8;stroke: #000000;stroke-linecap: round;stroke-linejoin: round } 
		.s3 { fill: #fef4e2 } 
		.s4 { fill: #ffcfc8 } 
		.s5 { fill: #000000 } 
	</style>
	<path id="Shape 5" class="s0" d="m76 11h4v27h-4z"/>
	<path id="Shape 4" class="s1" d="m77 12h2v25h-2z"/>
	<path id="Shape 1" class="s2" d="m78 21c-5.5 0-10-4.5-10-10 0-5.5 4.5-10 10-10 5.5 0 10 4.5 10 10 0 5.5-4.5 10-10 10z"/>
	<path id="Shape 1 copy" class="s3" d="m78 18.7c-4.3 0-7.7-3.4-7.7-7.7 0-4.3 3.4-7.7 7.7-7.7 4.3 0 7.7 3.4 7.7 7.7 0 4.3-3.4 7.7-7.7 7.7z"/>
	<path id="Shape 1 copy 2" class="s4" d="m78 16.7c-3.2 0-5.7-2.5-5.7-5.7 0-3.2 2.5-5.7 5.7-5.7 3.2 0 5.7 2.5 5.7 5.7 0 3.2-2.5 5.7-5.7 5.7z"/>
	<path id="Shape 1 copy 3" class="s3" d="m78 14.6c-2 0-3.6-1.6-3.6-3.6 0-2 1.6-3.6 3.6-3.6 2 0 3.6 1.6 3.6 3.6 0 2-1.6 3.6-3.6 3.6z"/>
	<path id="Shape 1 copy 4" class="s4" d="m78 12.7c-0.9 0-1.7-0.8-1.7-1.7 0-0.9 0.8-1.7 1.7-1.7 0.9 0 1.7 0.8 1.7 1.7 0 0.9-0.8 1.7-1.7 1.7z"/>
	<path id="Shop" class="s5" aria-label="Shop"  d="m94.1 23.6c0-0.6 0.4-0.8 0.4-1.1 0-0.3-0.4-0.5-0.8-0.5-0.4 0-0.7 0.1-0.9 0.5-0.2 0.3-0.2 0.7-0.2 1.1 0 1.8 2 3.6 5.6 3.6 2.4 0 4.9-0.9 6.1-2.4 1.6-0.6 2.8-1.9 3.5-3.2l-0.4-0.2c-0.7 1.3-1.5 2.3-2.7 2.8 0.3-0.5 0.5-1.1 0.5-1.8 0-5.2-5.8-7.4-5.8-10.8 0-0.9 0.4-1.4 0.5-1.6 0.5-0.8 1.5-1.3 2.9-1.3l-0.7-1.1c-2 0-3 1.7-3.2 3.5l-2.9 5.8 0.3 0.2 2.6-5.1c0.2 3.8 4.3 6.2 4.3 10.4 0 0.7-0.2 1.3-0.5 1.9-0.3-0.2-0.3-0.2-0.4-0.2-0.2 0-0.3 0.1-0.3 0.3 0 0.3 0.2 0.4 0.4 0.4-1 1.2-2.7 1.8-4.2 1.8-3.4 0-4.1-1.7-4.1-3zm14.1 3.4l0.7-3.8c2.6-4.2 4.9-5.7 6.3-5.7 0.6 0 0.7 0.6 0.7 1.4 0 2.4-1.1 4.7-1.1 6.5 0 1 0.3 1.8 1.5 1.8 2 0 2.3-0.8 3.9-3.8l0.9-1.8-0.3-0.2-1 1.8c-1.4 2.9-1.9 3.3-2.5 3.3-0.5 0-0.6-0.3-0.6-0.9 0-1.4 1.2-4.2 1.2-5.8 0-1.8-1.3-2.9-2.7-2.9-1.6 0-3.7 1.5-6 4.8 0.2-1.1 0.3-2.2 0.5-3.2 1.9-2.9 4.3-6.8 4.3-9.1 0-2.2-2.9-2.4-3.4-2.4-0.2 0-1.1 0.1-1.2 0.2-0.7 1-0.5 5.9-2.4 15.7l-0.8 4.1zm1.6-9.5c0.6-5.8 0.2-9.4 0.7-10l0.1-0.1c0.4 0 3 0.4 3 2 0 1.9-2.1 5.3-3.8 8.1zm19.1 2.2c0 0.3-0.1 3.2-1.4 5.2-0.3-0.1-0.3-0.1-0.3-0.1-0.2 0-0.4 0.2-0.4 0.3 0 0.2 0.1 0.3 0.3 0.3-0.6 0.7-1.4 1.2-2.5 1.2-1.8 0-2.4-1-2.4-2.5 0-1.6 0.5-6.6 4.3-6.6 1.8 0 2.4 0.9 2.4 2.2zm-4.3 7.5c1.5 0 2.8-0.6 3.9-1.6h0.1c2.6 0 3.6-2.3 4.4-4l-0.3-0.2c-1 1.9-1.6 3.7-3.8 3.9 1.1-1.2 1.7-2.8 1.7-4.3 0-2.2-1.4-4.1-4.1-4.1-3.1 0-6.2 2.8-6.2 6.1 0 2.4 1.9 4.2 4.3 4.2zm10.2-1.5c-0.2-0.3-0.4-0.5-0.6-0.6 0.4-2.6 0.9-5.3 1.1-6.6 0.9-0.7 1.9-1 3.1-1 1.6 0 2.5 1.3 2.5 3.2 0 1.7-0.7 3.5-1.1 4.2-0.3-0.1-0.3-0.1-0.4-0.1-0.2 0-0.4 0.1-0.4 0.3 0 0.2 0.1 0.4 0.4 0.4-0.6 0.8-1.3 1.3-2.1 1.3-1.3 0-1.8-0.3-2.5-1.1zm-2.7 0.1c-1.4 1.3-3.4 4.8-3.4 10.4 0 0.5 0.1 0.9 0.4 0.9 0.1 0 1.7 0 1.8 0 0.9-0.6 2.4-7.7 3.2-11.6 0.1 0.1 0.2 0.3 0.3 0.4 0.8 1 1.5 1.3 2.9 1.3 1.4 0 2.7-0.6 3.6-1.6 2.6 0 3.6-2.4 4.4-4l-0.4-0.2c-0.9 1.8-1.6 3.6-3.6 3.8 0.8-0.9 1.6-2.5 1.6-4.1 0-2.4-1.5-4.2-4.5-4.2-1.2 0-2.2 0.3-3 0.9 0-0.4 0-0.5-0.1-0.6 0-0.1-0.4-0.1-0.9-0.1h-1c0 0.4 0 1.5-0.4 3.6l-0.3 0.7 0.2 0.1zm-3 10.9c0-0.1 0-0.3 0-0.5 0-5.3 2-8.7 2.8-9.8-0.9 4.3-2.1 9.8-2.8 10.3z"/>
	<path id="Lolly" class="s5" aria-label="Lolly"  d="m19.9 7.8c-2 0-4 1.1-4.5 3.5-1.4 7-1.9 9.6-2.2 10.9-0.2 0-0.6-0.1-1-0.1-1.8 0-5.9 0.8-5.9 3.7 0 0.9 0.8 1.4 2 1.4 1.8 0 4.6-1.2 6.1-3.2 1.8 1.3 3.7 3.2 6.6 3.2 1.9 0 3.2-1.5 4.5-3.8l0.9-1.8-0.4-0.2-0.9 1.8c-1.1 2.2-2.6 3.3-3.5 3.3-2.5 0-4.1-2.5-6.6-3.7 0.6-1.6 1.1-4.7 2.3-10.8 0.5-2.6 1.9-3.5 3.3-3.5 1.7 0 3.3 1.2 3.3 2.8 0 1.6-1.7 3.5-2.6 4l0.2 0.3c0.9-0.4 2.8-2.5 2.8-4.3 0-2.2-2.2-3.5-4.4-3.5zm-7 15.2c0 0-1.8 3.7-4.9 3.7-0.8 0-1.3-0.3-1.3-0.9 0-1.8 2.5-3.1 4.5-3.1 0.6 0 1.2 0.1 1.7 0.3zm21.3-3.3c0 0.3-0.1 3.2-1.4 5.2-0.3-0.1-0.3-0.1-0.3-0.1-0.2 0-0.4 0.2-0.4 0.3 0 0.2 0.1 0.3 0.3 0.3-0.6 0.7-1.4 1.2-2.5 1.2-1.8 0-2.4-1-2.4-2.5 0-1.6 0.5-6.6 4.3-6.6 1.8 0 2.4 0.9 2.4 2.2zm-4.3 7.5c1.5 0 2.8-0.6 3.9-1.6h0.1c2.6 0 3.6-2.3 4.4-4l-0.3-0.2c-1 1.9-1.6 3.7-3.8 3.9 1.1-1.2 1.7-2.8 1.7-4.3 0-2.2-1.4-4.1-4.1-4.1-3.1 0-6.2 2.8-6.2 6.1 0 2.4 1.9 4.2 4.3 4.2zm9.6-4.2c0.3-1.6 0.5-3.1 0.7-4.4 1.9-3 4.3-7 4.3-9.2 0-2.2-3-2.4-3.4-2.4-0.2 0-1.1 0.1-1.2 0.2-0.7 1-0.5 5.9-2.4 15.7-0.1 0.4-0.1 0.9-0.1 1.3 0 1.5 0.5 3 2.2 3 1.9 0 3.3-1.5 4.5-3.8l1-1.8-0.4-0.2-1 1.8c-1.4 2.8-3 3.4-3.7 3.4-0.6 0-0.8-0.6-0.8-1.3 0-0.7 0.2-1.6 0.3-2.3zm0.8-5.4c0.6-5.9 0.2-9.5 0.8-10.1 0-0.1 0.2-0.1 0.2-0.1 0.4 0 2.8 0.4 2.8 2 0 1.9-2 5.3-3.8 8.2zm5.9 5.4c0.3-1.6 0.5-3.1 0.7-4.4 1.9-3 4.4-7 4.4-9.2 0-2.2-3-2.4-3.4-2.4-0.2 0-1.1 0.1-1.2 0.2-0.8 1-0.5 5.9-2.5 15.7 0 0.4-0.1 0.9-0.1 1.3 0 1.5 0.5 3 2.2 3 1.9 0 3.3-1.5 4.5-3.8l1-1.8-0.4-0.2-0.9 1.8c-1.4 2.8-3 3.4-3.8 3.4-0.6 0-0.8-0.6-0.8-1.3 0-0.7 0.2-1.6 0.3-2.3zm0.8-5.4c0.7-5.9 0.3-9.5 0.8-10.1 0.1-0.1 0.2-0.1 0.2-0.1 0.5 0 2.9 0.4 2.9 2 0 1.9-2.1 5.3-3.9 8.2zm15.7-0.5h-2l-0.9 4.6c-2.5 3.7-4.8 4.9-5.7 4.9-0.6 0-0.8-0.6-0.8-1.4 0-0.8 0.1-1.8 0.3-3 0.7-3.3 0.8-3.4 1.2-4.9 0-0.1-0.2-0.2-0.4-0.2h-2l-0.1 0.4h0.6c-0.1 0.9-0.7 2.4-1.5 3.9l0.4 0.2c-0.2 0.7-0.3 1.5-0.3 2.5 0 1.9 0.7 3.1 2.6 3.1 1.1 0 3.2-1.2 5.4-4.2l-0.8 4.4c-4.7 2.6-9.2 3-9.2 6.1 0 1.1 1.3 3.6 5 3.6 0.9 0 4.4-0.3 5-3.7l1.4-6.9c1.6-1.2 3.1-2.8 4.4-4.9l-0.4-0.2c-1.2 1.9-2.5 3.3-3.9 4.4l0.5-2.8c1-4.7 1.1-5.4 1.2-5.9zm-4.1 10.9l-1.2 6.1c-0.4 2.3-2.1 2.4-2.9 2.4-3.4 0-4.5-2.3-4.5-3 0-2.7 4.2-3.1 8.6-5.5z"/>
</svg>